<mxfile host="app.diagrams.net" modified="2024-05-21T07:19:17.177Z" agent="Mozilla/5.0 (Windows NT 10.0; Win64; x64; rv:126.0) Gecko/20100101 Firefox/126.0" version="24.4.0" etag="v_cOLpUETr-2OuyYO_Zz" type="github">
  <diagram name="Страница — 1" id="SOhUz1TbEU7jqB747iQd">
    <mxGraphModel>
      <root>
        <mxCell id="0" />
        <mxCell id="1" parent="0" />
      </root>
    </mxGraphModel>
  </diagram>
</mxfile>
